<svg width="300" height="300" viewBox="0 0 300 300" fill="none" xmlns="http://www.w3.org/2000/svg">
<circle cx="150" cy="150" r="150" fill="#39607C" fill-opacity="0.73"/>
<path d="M150 177.812C167.171 177.812 181.091 165.137 181.091 149.5V102.312C181.091 86.6757 167.171 74 150 74C132.829 74 118.909 86.6757 118.909 102.312V149.5C118.909 165.137 132.829 177.812 150 177.812ZM201.818 130.625H196.636C193.773 130.625 191.455 132.737 191.455 135.344V149.5C191.455 171.56 170.569 189.261 145.858 187.067C124.321 185.153 108.545 167.523 108.545 147.819V135.344C108.545 132.737 106.227 130.625 103.364 130.625H98.1818C95.3189 130.625 93 132.737 93 135.344V147.188C93 173.625 113.718 197.192 142.227 200.772V210.844H124.091C121.228 210.844 118.909 212.955 118.909 215.562V220.281C118.909 222.888 121.228 225 124.091 225H175.909C178.772 225 181.091 222.888 181.091 220.281V215.562C181.091 212.955 178.772 210.844 175.909 210.844H157.773V200.884C185.531 197.416 207 175.719 207 149.5V135.344C207 132.737 204.681 130.625 201.818 130.625Z" fill="#FAFAFA"/>
</svg>
